<svg width="17" height="19" viewBox="0 0 17 19" fill="none" xmlns="http://www.w3.org/2000/svg">
<path id="userIcon" fill-rule="evenodd" clip-rule="evenodd" d="M6.5875 0.243295C4.95617 0.983242 4.25537 2.75818 4.68999 5.04848C4.845 5.86426 4.84343 6.37851 4.68507 6.67444C4.51842 6.98581 4.53475 7.26251 4.74322 7.66044C6.45911 10.9354 6.51816 11.0994 6.3325 12.0744C6.15311 13.0166 6.12783 13.038 3.87399 14.1448C2.62136 14.76 1.37432 15.4646 1.10299 15.7106C0.628553 16.1405 0 17.3475 0 17.8285C0 17.983 2.80612 18.0593 8.5 18.0593C13.623 18.0593 17 17.9763 17 17.8502C17 17.3958 16.4976 16.3539 16.0344 15.8484C15.7659 15.5549 14.5296 14.8373 13.2875 14.2533C12.0454 13.6695 10.9632 13.0206 10.8829 12.8112C10.5615 11.9733 10.7796 10.5386 11.4112 9.33561C12.495 7.27212 12.548 7.10995 12.293 6.63351C12.1315 6.33153 12.1311 5.94053 12.2917 5.36186C12.8547 3.33483 12.2402 1.08547 11.0645 0.870058C10.8227 0.825768 10.4452 0.629821 10.2253 0.434768C9.68866 -0.0412317 7.47195 -0.157995 6.5875 0.243295Z" fill="#0290FF"/>
</svg>
